<svg width="610" height="102" viewBox="0 0 610 102" fill="none" xmlns="http://www.w3.org/2000/svg">
<path d="M174.43 50.9775C174.43 54.2495 173.81 57.5726 172.57 60.9468C171.33 64.3211 169.435 67.4397 166.886 70.3027C164.337 73.1316 161.117 75.4151 157.224 77.1534C153.332 78.8916 148.751 79.7607 143.481 79.7607C136.419 79.7607 130.392 78.1077 125.397 74.8016C120.402 71.4615 116.579 66.8773 113.927 61.0491C111.309 55.1868 110 48.4383 110 40.8037C110 33.2031 111.309 26.4888 113.927 20.6605C116.579 14.7982 120.402 10.2311 125.397 6.9591C130.392 3.65303 136.419 2 143.481 2C149.336 2 154.331 3.05658 158.464 5.16974C162.632 7.28289 165.956 10.0266 168.436 13.4008C170.951 16.7751 172.673 20.3367 173.603 24.0859C174.154 26.3695 174.43 28.5678 174.43 30.681H158.361C158.361 29.6585 158.275 28.6701 158.103 27.7157C157.586 24.0007 156.07 20.9162 153.556 18.4622C151.041 15.9741 147.683 14.7301 143.481 14.7301C138.521 14.7301 134.422 16.8603 131.184 21.1207C127.946 25.347 126.327 31.908 126.327 40.8037C126.327 49.7335 127.946 56.3456 131.184 60.6401C134.422 64.9005 138.521 67.0307 143.481 67.0307C146.65 67.0307 149.336 66.2808 151.541 64.7812C153.745 63.2815 155.433 61.3217 156.604 58.9018C157.775 56.4479 158.361 53.8064 158.361 50.9775H174.43Z" fill="#00AAAA"/>
<path d="M203.475 79.6585C197.447 79.6585 192.504 78.2611 188.646 75.4663C184.788 72.6714 182.859 68.7178 182.859 63.6053C182.859 59.7539 183.927 56.6183 186.063 54.1984C188.198 51.7785 191.023 49.938 194.536 48.6769C198.084 47.3817 201.925 46.5297 206.058 46.1207C212.052 45.5753 216.202 45.0641 218.51 44.5869C220.818 44.0757 221.972 43.2236 221.972 42.0307V41.9284C221.972 39.9175 220.99 38.3326 219.027 37.1738C217.098 36.015 214.394 35.4356 210.915 35.4356C203.337 35.4356 199.548 38.0941 199.548 43.411H183.789C183.789 39.0825 184.978 35.4185 187.355 32.4192C189.766 29.3858 193.021 27.1023 197.12 25.5685C201.219 24.0007 205.852 23.2168 211.018 23.2168C215.841 23.2168 220.301 23.9496 224.4 25.4151C228.499 26.8466 231.789 29.028 234.269 31.9591C236.783 34.8562 238.041 38.5201 238.041 42.9509V66.4172C238.041 67.8146 238.075 69.1609 238.144 70.456C238.247 71.7512 238.454 72.91 238.764 73.9325C239.108 75.1254 239.539 76.1138 240.056 76.8978C240.572 77.6817 241.003 78.227 241.347 78.5337H225.589C225.347 78.2611 224.969 77.7669 224.452 77.0511C223.97 76.3013 223.556 75.4322 223.212 74.4438C223.005 73.8643 222.833 73.302 222.695 72.7566C220.629 74.938 217.907 76.6421 214.532 77.8691C211.156 79.062 207.47 79.6585 203.475 79.6585ZM207.763 67.7975C210.243 67.7975 212.586 67.3545 214.79 66.4683C216.995 65.5481 218.786 64.1166 220.164 62.1738C221.541 60.2311 222.23 57.6919 222.23 54.5562V54.0961C220.267 54.6074 218.183 55.0334 215.978 55.3742C213.774 55.681 211.587 55.9536 209.417 56.1922C205.903 56.5331 203.268 57.1295 201.511 57.9816C199.789 58.7996 198.928 60.197 198.928 62.1738C198.928 65.923 201.873 67.7975 207.763 67.7975Z" fill="#00AAAA"/>
<path d="M275.521 79.6585C273.42 79.6585 271.25 79.471 269.011 79.0961C266.807 78.7553 264.757 78.0566 262.863 77C260.968 75.9093 259.418 74.3245 258.213 72.2454C257.042 70.1663 256.456 67.4226 256.456 64.0143V36.5092H243.797V24.2393H247.362C250.153 24.2393 252.185 24.0518 253.459 23.6769C254.768 23.302 255.595 22.3476 255.939 20.8139C256.284 19.2461 256.456 16.7069 256.456 13.1963V6.3456H272.525V24.2393H288.49V36.5092H272.525V59.5153C272.525 61.8671 272.8 63.7757 273.351 65.2413C273.937 66.7069 275.366 67.4397 277.64 67.4397C278.776 67.4397 279.844 67.3374 280.843 67.1329C281.876 66.9284 282.652 66.7239 283.168 66.5194V78.4315C282.445 78.7382 281.429 79.0109 280.12 79.2495C278.811 79.5222 277.278 79.6585 275.521 79.6585Z" fill="#00AAAA"/>
<path d="M315.489 79.6585C309.461 79.6585 304.518 78.2611 300.66 75.4663C296.802 72.6714 294.873 68.7178 294.873 63.6053C294.873 59.7539 295.941 56.6183 298.077 54.1984C300.212 51.7785 303.037 49.938 306.55 48.6769C310.098 47.3817 313.939 46.5297 318.072 46.1207C324.066 45.5753 328.216 45.0641 330.524 44.5869C332.832 44.0757 333.986 43.2236 333.986 42.0307V41.9284C333.986 39.9175 333.004 38.3326 331.041 37.1738C329.112 36.015 326.408 35.4356 322.929 35.4356C315.351 35.4356 311.562 38.0941 311.562 43.411H295.803C295.803 39.0825 296.992 35.4185 299.368 32.4192C301.78 29.3858 305.035 27.1023 309.134 25.5685C313.233 24.0007 317.865 23.2168 323.032 23.2168C327.855 23.2168 332.315 23.9496 336.414 25.4151C340.513 26.8466 343.803 29.028 346.283 31.9591C348.797 34.8562 350.054 38.5201 350.054 42.9509V66.4172C350.054 67.8146 350.089 69.1609 350.158 70.456C350.261 71.7512 350.468 72.91 350.778 73.9325C351.122 75.1254 351.553 76.1138 352.069 76.8978C352.586 77.6817 353.017 78.227 353.361 78.5337H337.602C337.361 78.2611 336.982 77.7669 336.466 77.0511C335.984 76.3013 335.57 75.4322 335.226 74.4438C335.019 73.8643 334.847 73.302 334.709 72.7566C332.642 74.938 329.921 76.6421 326.546 77.8691C323.17 79.062 319.484 79.6585 315.489 79.6585ZM319.777 67.7975C322.257 67.7975 324.599 67.3545 326.804 66.4683C329.008 65.5481 330.8 64.1166 332.177 62.1738C333.555 60.2311 334.244 57.6919 334.244 54.5562V54.0961C332.281 54.6074 330.197 55.0334 327.992 55.3742C325.788 55.681 323.601 55.9536 321.43 56.1922C317.917 56.5331 315.282 57.1295 313.525 57.9816C311.803 58.7996 310.942 60.197 310.942 62.1738C310.942 65.923 313.887 67.7975 319.777 67.7975Z" fill="#00AAAA"/>
<path d="M361.776 78.5337V24.2393H377.793V31.4479C379.584 28.8916 381.874 26.8807 384.664 25.4151C387.454 23.9496 390.641 23.2168 394.223 23.2168C398.804 23.2168 402.369 24.2052 404.918 26.182C407.502 28.1247 409.344 30.6639 410.447 33.7996C412.1 30.5617 414.442 27.9884 417.473 26.0798C420.505 24.1711 424.104 23.2168 428.272 23.2168C432.75 23.2168 436.28 24.1541 438.864 26.0286C441.482 27.8691 443.342 30.3572 444.444 33.4928C445.581 36.6285 446.149 40.122 446.149 43.9734V78.5337H430.132V48.4724C430.132 46.4956 429.96 44.621 429.615 42.8487C429.271 41.0423 428.513 39.5767 427.342 38.4519C426.171 37.3272 424.328 36.7648 421.814 36.7648C419.437 36.7648 417.525 37.3954 416.078 38.6564C414.632 39.9175 413.581 41.5706 412.927 43.6155C412.272 45.6605 411.945 47.8419 411.945 50.1595V78.5337H396.031V48.5746C396.031 46.7342 395.876 44.9107 395.566 43.1043C395.256 41.2979 394.516 39.7982 393.345 38.6053C392.173 37.3783 390.331 36.7648 387.816 36.7648C385.439 36.7648 383.511 37.4124 382.029 38.7076C380.583 39.9686 379.515 41.6387 378.826 43.7178C378.137 45.7969 377.793 48.0464 377.793 50.4663V78.5337H361.776Z" fill="#00AAAA"/>
<path d="M460.979 102C459.257 102 457.707 101.932 456.329 101.796C454.986 101.659 454.142 101.54 453.797 101.438V89.4233C454.245 89.6278 455.02 89.7812 456.122 89.8834C457.259 90.0198 458.465 90.0879 459.739 90.0879C462.288 90.0879 464.441 89.3551 466.198 87.8896C467.989 86.424 469.298 84.4642 470.124 82.0102L471.054 79.2495L452.144 24.2393H468.833L479.786 65.2413L490.378 24.2393H506.86L488.001 81.2433C486.589 85.5378 484.85 89.2358 482.783 92.3374C480.716 95.4731 477.961 97.8589 474.516 99.4949C471.072 101.165 466.559 102 460.979 102Z" fill="#00AAAA"/>
<path d="M535.075 79.7607C530.735 79.7607 526.618 79.1132 522.726 77.818C518.868 76.4888 515.734 74.529 513.323 71.9386C510.911 69.3142 509.706 66.0423 509.706 62.1227V61.2025H525.619V61.9182C525.619 63.895 526.498 65.3436 528.255 66.2638C530.011 67.1841 532.422 67.6442 535.488 67.6442C537.83 67.6442 540.017 67.2693 542.05 66.5194C544.082 65.7696 545.098 64.5256 545.098 62.7873C545.098 60.9809 544.082 59.7028 542.05 58.953C540.052 58.2031 536.831 57.4533 532.388 56.7035C529.839 56.2945 527.273 55.7151 524.689 54.9652C522.141 54.2154 519.781 53.227 517.611 52C515.441 50.7389 513.701 49.1541 512.393 47.2454C511.084 45.3027 510.429 42.9509 510.429 40.1902C510.429 36.5092 511.549 33.4076 513.788 30.8855C516.061 28.3633 519.075 26.4547 522.829 25.1595C526.584 23.8644 530.717 23.2168 535.23 23.2168C539.501 23.2168 543.496 23.9325 547.217 25.364C550.971 26.7614 554.002 28.7894 556.31 31.4479C558.618 34.0723 559.772 37.242 559.772 40.9571V41.6728H544.013V41.0593C544.013 39.0143 543.066 37.5317 541.171 36.6115C539.311 35.6571 537.314 35.18 535.178 35.18C533.869 35.18 532.508 35.3333 531.096 35.6401C529.718 35.9128 528.547 36.3899 527.583 37.0716C526.618 37.7192 526.136 38.6394 526.136 39.8323C526.136 41.5706 527.273 42.8487 529.546 43.6667C531.854 44.4847 534.834 45.1834 538.485 45.7628C540.793 46.1377 543.221 46.666 545.77 47.3476C548.353 47.9952 550.764 48.9325 553.003 50.1595C555.242 51.3524 557.068 52.9373 558.48 54.9141C559.892 56.8909 560.598 59.362 560.598 62.3272C560.598 65.4288 559.875 68.0873 558.428 70.3027C556.982 72.5181 555.018 74.3245 552.538 75.7219C550.093 77.0852 547.354 78.0907 544.323 78.7382C541.292 79.4199 538.209 79.7607 535.075 79.7607Z" fill="#00AAAA"/>
<path d="M597.031 79.6585C594.93 79.6585 592.76 79.471 590.521 79.0961C588.317 78.7553 586.267 78.0566 584.373 77C582.478 75.9093 580.928 74.3245 579.723 72.2454C578.552 70.1663 577.966 67.4226 577.966 64.0143V36.5092H565.307V24.2393H568.873C571.663 24.2393 573.695 24.0518 574.969 23.6769C576.278 23.302 577.105 22.3476 577.449 20.8139C577.794 19.2461 577.966 16.7069 577.966 13.1963V6.3456H594.035V24.2393H610V36.5092H594.035V59.5153C594.035 61.8671 594.31 63.7757 594.861 65.2413C595.447 66.7069 596.876 67.4397 599.15 67.4397C600.286 67.4397 601.354 67.3374 602.353 67.1329C603.387 66.9284 604.162 66.7239 604.678 66.5194V78.4315C603.955 78.7382 602.939 79.0109 601.63 79.2495C600.321 79.5222 598.788 79.6585 597.031 79.6585Z" fill="#00AAAA"/>
<path fill-rule="evenodd" clip-rule="evenodd" d="M5.13692 0.601792L5.00001 5.59993L0.0018774 5.73684C-0.0357352 4.36375 0.49319 3.03567 1.46447 2.06439C2.43575 1.0931 3.76384 0.564179 5.13692 0.601792ZM35.6164 5.4938C33.7921 4.74428 31.9014 4.06003 30.071 3.55512C25.3089 2.24149 18.9707 1.5211 14.0722 1.11956C11.5714 0.914561 9.34872 0.78557 7.75022 0.707711C6.94999 0.668734 6.30369 0.64245 5.85425 0.625822C5.62947 0.617505 5.45375 0.611597 5.33245 0.607719C5.27179 0.60578 5.22473 0.604348 5.19192 0.603376L5.13778 0.601815C5.13732 0.601803 5.13692 0.601792 5.00001 5.59993C0.00187722 5.73684 0.00188846 5.73724 0.00190067 5.7377L0.00346127 5.79184C0.00443325 5.82464 0.00586529 5.87171 0.00780431 5.93236C0.0116823 6.05366 0.0175905 6.22938 0.025907 6.45416C0.0425357 6.9036 0.068819 7.54991 0.107796 8.35013C0.185655 9.94864 0.314647 12.1713 0.519643 14.6721C0.921186 19.5706 1.64157 25.9088 2.9552 30.6709C4.32026 35.6194 7.08298 41.2566 9.14459 45.1002C5.8564 45.13 3.20001 47.8048 3.20001 51.1C3.20001 52.8385 3.93935 54.4042 5.12076 55.5C3.93935 56.5958 3.20001 58.1616 3.20001 59.9C3.20001 63.2137 5.8863 65.9 9.20002 65.9H15.3474C22.363 78.669 35.6428 87.4001 51.0001 87.4001C66.3574 87.4001 79.6372 78.669 86.6528 65.9H93.1002C96.4139 65.9 99.1002 63.2137 99.1002 59.9C99.1002 58.1616 98.3608 56.5958 97.1794 55.5C98.3608 54.4042 99.1002 52.8385 99.1002 51.1C99.1002 47.7863 96.4139 45.1 93.1002 45.1H91.9997C92 45.0334 92.0002 44.9667 92.0002 44.9C92.0002 44.5665 91.9964 44.2338 91.9891 43.902C93.9169 40.2106 96.3012 35.1792 97.5448 30.6709C98.8584 25.9088 99.5788 19.5706 99.9803 14.6721C100.185 12.1713 100.314 9.94864 100.392 8.35013C100.431 7.54991 100.457 6.9036 100.474 6.45416C100.482 6.22938 100.488 6.05366 100.492 5.93236C100.494 5.87171 100.496 5.82465 100.497 5.79184L100.498 5.7534L100.498 5.7389L100.498 5.7377C100.498 5.73724 100.498 5.73684 95.5 5.59993L100.498 5.73684C100.536 4.36375 100.007 3.03567 99.0355 2.06439C98.0642 1.0931 96.7362 0.564179 95.3631 0.601792L95.5 5.59993C95.3631 0.601792 95.3627 0.601803 95.3622 0.601815L95.3081 0.603376C95.2753 0.604348 95.2282 0.60578 95.1675 0.607719C95.0462 0.611597 94.8705 0.617505 94.6457 0.625822C94.1963 0.64245 93.55 0.668734 92.7498 0.707711C91.1513 0.78557 88.9286 0.914561 86.4278 1.11956C81.5293 1.5211 75.1911 2.24149 70.429 3.55512C68.8462 3.99174 67.2216 4.56146 65.6376 5.1894C61.0895 3.38739 56.1525 2.39992 51.0001 2.39992C45.5637 2.39992 40.3682 3.49919 35.6164 5.4938ZM35.673 10.9586C33.3566 9.9241 30.9496 8.98424 28.7414 8.3751C23.3111 6.87716 15.2049 6.1626 10.0103 5.84053C7.02401 5.65537 5.00001 5.59993 5.00001 5.59993C5.00001 5.59993 5.05545 7.62393 5.24061 10.6102C5.56269 15.8048 6.27724 23.9111 7.77519 29.3413C9.29691 34.8577 12.8825 41.6149 14.8525 45.1C14.9037 45.1906 14.9538 45.279 15.0027 45.3651C15.0095 45.9467 15.029 46.5251 15.061 47.1C15.1171 48.1113 15.2117 49.1118 15.3433 50.1H9.20002C8.64773 50.1 8.20002 50.5477 8.20002 51.1C8.20002 51.6523 8.64773 52.1 9.20002 52.1H15.6629C15.7759 52.7053 15.9029 53.3055 16.0435 53.9C16.131 54.27 16.2238 54.6378 16.3217 55.0034C16.4022 55.3038 16.4862 55.6027 16.5737 55.9C16.8734 56.9192 17.2137 57.9198 17.5926 58.9H9.20002C8.64773 58.9 8.20002 59.3477 8.20002 59.9C8.20002 60.4523 8.64773 60.9 9.20002 60.9H18.4319C18.8237 61.7637 19.2461 62.6093 19.6978 63.4352C25.8925 74.7624 37.5901 82.4001 51.0001 82.4001C64.4101 82.4001 76.1077 74.7624 82.3024 63.4352C82.7541 62.6093 83.1765 61.7637 83.5682 60.9H93.1002C93.6525 60.9 94.1002 60.4523 94.1002 59.9C94.1002 59.3477 93.6525 58.9 93.1002 58.9H84.4075C84.7865 57.9198 85.1268 56.9192 85.4265 55.9C85.514 55.6027 85.598 55.3038 85.6784 55.0034C85.7764 54.6378 85.8692 54.27 85.9567 53.9C86.0973 53.3055 86.2242 52.7053 86.3372 52.1H93.1002C93.6525 52.1 94.1002 51.6523 94.1002 51.1C94.1002 50.5477 93.6525 50.1 93.1002 50.1H86.6568C86.7884 49.1118 86.8831 48.1113 86.9392 47.1C86.976 46.4378 86.9963 45.771 86.9996 45.1C87 45.0334 87.0002 44.9667 87.0002 44.9C87.0002 44.1782 86.9806 43.4612 86.9419 42.7494C88.9244 39.0533 91.4967 33.7933 92.7248 29.3413C94.2227 23.9111 94.9373 15.8048 95.2594 10.6102C95.4445 7.62393 95.5 5.59993 95.5 5.59993C95.5 5.59993 93.476 5.65537 90.4897 5.84053C85.2951 6.1626 77.1889 6.87716 71.7586 8.3751C69.7974 8.9161 67.6794 9.71798 65.6073 10.6154C61.1431 8.54849 56.2004 7.39993 51.0001 7.39993C45.5186 7.39993 40.3233 8.67605 35.673 10.9586Z" fill="#00AAAA"/>
<path d="M5.00002 5.59991C5.00002 5.59991 20.1893 6.01599 28.7414 8.37509C36.5429 10.5272 46.8259 16.8071 46.8259 16.8071L16.2072 47.4258C16.2072 47.4258 9.92725 37.1428 7.77519 29.3413C5.41609 20.7892 5.00002 5.59991 5.00002 5.59991Z" fill="white"/>
<path fill-rule="evenodd" clip-rule="evenodd" d="M16.2072 47.4258C16.2072 47.4258 15.9088 46.9371 15.4197 46.092C13.6653 43.0604 9.45811 35.4421 7.77519 29.3413C5.86543 22.4181 5.22901 11.1453 5.05585 7.10223C5.01511 6.15096 5.00002 5.59991 5.00002 5.59991C5.00002 5.59991 5.02275 5.60054 5.06696 5.60187L5.07194 5.60202C5.24988 5.60741 5.75141 5.62359 6.50233 5.65575C10.5454 5.8289 21.8183 6.46533 28.7414 8.37509C34.8422 10.058 42.4605 14.2652 45.4921 16.0196C46.3372 16.5087 46.8259 16.8071 46.8259 16.8071L16.2072 47.4258ZM24.3234 37.1883C22.3997 34.3749 17.7037 27.4225 14.7762 22.3773C11.1125 16.0634 6.96244 7.99669 6.56224 7.21683C6.56139 7.19762 6.56056 7.17855 6.55973 7.15963C6.82347 7.17113 7.11589 7.18452 7.434 7.20001C8.97936 7.27529 11.1283 7.40004 13.5411 7.59783C18.3978 7.99594 24.2123 8.68176 28.3425 9.82109C32.0866 10.8539 36.4942 12.9019 40.0186 14.7297C41.769 15.6375 43.2794 16.4793 44.3514 17.0937L44.3938 17.118L24.3234 37.1883Z" fill="black"/>
<path d="M95.5 5.59991C95.5 5.59991 80.3107 6.01599 71.7586 8.37509C63.9571 10.5272 53.6741 16.8071 53.6741 16.8071L84.2928 47.4258C84.2928 47.4258 90.5728 37.1428 92.7248 29.3413C95.0839 20.7892 95.5 5.59991 95.5 5.59991Z" fill="white"/>
<path fill-rule="evenodd" clip-rule="evenodd" d="M84.2928 47.4258C84.2928 47.4258 84.5912 46.9371 85.0803 46.092C86.8347 43.0604 91.0419 35.4421 92.7248 29.3413C94.6346 22.4181 95.271 11.1453 95.4442 7.10223C95.4849 6.15096 95.5 5.59991 95.5 5.59991C95.5 5.59991 95.4773 5.60054 95.433 5.60187L95.4281 5.60202C95.2501 5.60741 94.7486 5.62359 93.9977 5.65575C89.9546 5.8289 78.6818 6.46533 71.7586 8.37509C65.6578 10.058 58.0395 14.2652 55.0079 16.0196C54.1628 16.5087 53.6741 16.8071 53.6741 16.8071L84.2928 47.4258ZM76.1766 37.1883C78.1003 34.3749 82.7964 27.4225 85.7238 22.3773C89.3875 16.0634 93.5376 7.99669 93.9378 7.21683C93.9386 7.19762 93.9395 7.17855 93.9403 7.15963C93.6765 7.17113 93.3841 7.18452 93.066 7.20001C91.5206 7.27529 89.3718 7.40004 86.9589 7.59783C82.1022 7.99594 76.2877 8.68176 72.1575 9.82109C68.4134 10.8539 64.0058 12.9019 60.4814 14.7297C58.731 15.6375 57.2206 16.4793 56.1486 17.0937L56.1062 17.118L76.1766 37.1883Z" fill="black"/>
<path fill-rule="evenodd" clip-rule="evenodd" d="M79.1001 51.1C79.1001 50.5477 79.5478 50.1 80.1001 50.1H93.1001C93.6524 50.1 94.1001 50.5477 94.1001 51.1C94.1001 51.6523 93.6524 52.1 93.1001 52.1H80.1001C79.5478 52.1 79.1001 51.6523 79.1001 51.1Z" fill="black"/>
<path fill-rule="evenodd" clip-rule="evenodd" d="M79.1001 59.9C79.1001 59.3477 79.5478 58.9 80.1001 58.9H93.1001C93.6524 58.9 94.1001 59.3477 94.1001 59.9C94.1001 60.4523 93.6524 60.9 93.1001 60.9H80.1001C79.5478 60.9 79.1001 60.4523 79.1001 59.9Z" fill="black"/>
<path d="M87.0002 44.9C87.0002 65.6107 70.8824 82.4001 51.0001 82.4001C31.1178 82.4001 15 65.6107 15 44.9C15 24.1893 31.1178 7.39996 51.0001 7.39996C70.8824 7.39996 87.0002 24.1893 87.0002 44.9Z" fill="white"/>
<path fill-rule="evenodd" clip-rule="evenodd" d="M51.0001 80.9001C69.9968 80.9001 85.5002 64.8406 85.5002 44.9C85.5002 24.9594 69.9968 8.89997 51.0001 8.89997C32.0034 8.89997 16.5 24.9594 16.5 44.9C16.5 64.8406 32.0034 80.9001 51.0001 80.9001ZM51.0001 82.4001C70.8824 82.4001 87.0002 65.6107 87.0002 44.9C87.0002 24.1893 70.8824 7.39996 51.0001 7.39996C31.1178 7.39996 15 24.1893 15 44.9C15 65.6107 31.1178 82.4001 51.0001 82.4001Z" fill="black"/>
<ellipse cx="40.8001" cy="45.2" rx="2.5" ry="3.00001" fill="black"/>
<ellipse cx="69.5001" cy="45.2" rx="2.5" ry="3.00001" fill="black"/>
<path fill-rule="evenodd" clip-rule="evenodd" d="M60.7992 51.2082C60.8 51.2039 60.8001 51.2016 60.8001 51.2C60.8001 51.1984 60.8 51.1961 60.7992 51.1919C60.7983 51.1874 60.796 51.1782 60.79 51.1636C60.7779 51.1339 60.7489 51.0784 60.6834 51.001C60.5466 50.8393 60.2898 50.6293 59.8719 50.4203C59.0353 50.002 57.7746 49.7 56.3001 49.7C54.8256 49.7 53.5649 50.002 52.7283 50.4203C52.3104 50.6293 52.0536 50.8393 51.9168 51.001C51.8513 51.0784 51.8224 51.1339 51.8102 51.1636C51.8043 51.1782 51.802 51.1874 51.8011 51.1919C51.8002 51.1961 51.8001 51.1984 51.8001 51.2C51.8001 51.2016 51.8002 51.2039 51.8011 51.2082C51.802 51.2126 51.8043 51.2219 51.8102 51.2365C51.8224 51.2661 51.8513 51.3216 51.9168 51.399C52.0536 51.5607 52.3104 51.7708 52.7283 51.9797C53.5649 52.398 54.8256 52.7 56.3001 52.7C57.7746 52.7 59.0353 52.398 59.8719 51.9797C60.2898 51.7708 60.5466 51.5607 60.6834 51.399C60.7489 51.3216 60.7779 51.2661 60.79 51.2365C60.796 51.2219 60.7983 51.2126 60.7992 51.2082ZM56.3001 54.2C59.6138 54.2 62.3001 52.8569 62.3001 51.2C62.3001 49.5432 59.6138 48.2 56.3001 48.2C52.9864 48.2 50.3001 49.5432 50.3001 51.2C50.3001 52.8569 52.9864 54.2 56.3001 54.2Z" fill="black"/>
<path fill-rule="evenodd" clip-rule="evenodd" d="M49.4174 56.4741C49.1832 56.1345 48.7182 56.0478 48.3772 56.2807C48.0351 56.5142 47.9471 56.9809 48.1807 57.323L48.8001 56.9C48.1807 57.323 48.1809 57.3232 48.1811 57.3235L48.1815 57.3241L48.1824 57.3255L48.1847 57.3288C48.1864 57.3312 48.1884 57.3342 48.1908 57.3375C48.1956 57.3443 48.2018 57.353 48.2094 57.3634C48.2245 57.3842 48.2453 57.4122 48.2716 57.4461C48.3244 57.514 48.3998 57.6063 48.4978 57.715C48.6933 57.9317 48.9822 58.2167 49.3639 58.5013C50.1288 59.0716 51.2823 59.65 52.8001 59.65C54.3179 59.65 55.4713 59.0716 56.2362 58.5013C56.618 58.2167 56.9068 57.9317 57.1024 57.715C57.2004 57.6063 57.2758 57.514 57.3285 57.4461C57.3549 57.4122 57.3757 57.3842 57.3908 57.3634C57.3984 57.353 57.4046 57.3443 57.4094 57.3375C57.4117 57.3342 57.4138 57.3312 57.4155 57.3288L57.4177 57.3255L57.4187 57.3241L57.4191 57.3235C57.4193 57.3232 57.4195 57.323 56.8001 56.9L57.4195 57.323C57.6531 56.9809 57.5651 56.5142 57.223 56.2807C56.8819 56.0478 56.417 56.1345 56.1828 56.4741C56.1821 56.4751 56.1803 56.4776 56.1774 56.4816C56.1713 56.49 56.1601 56.5051 56.144 56.5258C56.1117 56.5674 56.0599 56.6312 55.9887 56.7101C55.8459 56.8684 55.6286 57.0834 55.3397 57.2987C54.7632 57.7285 53.9166 58.15 52.8001 58.15C51.6835 58.15 50.837 57.7285 50.2605 57.2987C49.9715 57.0834 49.7543 56.8684 49.6114 56.7101C49.5403 56.6312 49.4884 56.5674 49.4562 56.5258C49.4401 56.5051 49.4289 56.49 49.4228 56.4816C49.4199 56.4776 49.4181 56.475 49.4174 56.4741ZM56.183 56.4738C56.1831 56.4737 56.183 56.4737 56.1828 56.474L56.183 56.4738Z" fill="black"/>
<path fill-rule="evenodd" clip-rule="evenodd" d="M56.1001 57.9V52.9H57.6001V57.9H56.1001Z" fill="black"/>
<path fill-rule="evenodd" clip-rule="evenodd" d="M64.1828 56.4741C64.417 56.1345 64.882 56.0478 65.2231 56.2807C65.5651 56.5142 65.6531 56.9809 65.4195 57.323L64.8001 56.9C65.4195 57.323 65.4193 57.3232 65.4191 57.3235L65.4187 57.3241L65.4178 57.3255L65.4155 57.3288C65.4138 57.3312 65.4118 57.3342 65.4094 57.3375C65.4046 57.3443 65.3984 57.353 65.3909 57.3634C65.3757 57.3842 65.3549 57.4122 65.3286 57.4461C65.2759 57.514 65.2004 57.6063 65.1024 57.715C64.9069 57.9317 64.6181 58.2167 64.2363 58.5013C63.4714 59.0716 62.3179 59.65 60.8001 59.65C59.2823 59.65 58.1289 59.0716 57.364 58.5013C56.9822 58.2167 56.6934 57.9317 56.4978 57.715C56.3998 57.6063 56.3244 57.514 56.2717 57.4461C56.2453 57.4122 56.2245 57.3842 56.2094 57.3634C56.2018 57.353 56.1956 57.3443 56.1909 57.3375C56.1885 57.3342 56.1864 57.3312 56.1847 57.3288L56.1825 57.3255L56.1815 57.3241L56.1811 57.3235C56.1809 57.3232 56.1807 57.323 56.8001 56.9L56.1807 57.323C55.9472 56.9809 56.0351 56.5142 56.3772 56.2807C56.7183 56.0478 57.1832 56.1345 57.4175 56.4741C57.4181 56.4751 57.4199 56.4776 57.4228 56.4816C57.429 56.49 57.4401 56.5051 57.4562 56.5258C57.4885 56.5674 57.5403 56.6312 57.6115 56.7101C57.7543 56.8684 57.9716 57.0834 58.2605 57.2987C58.837 57.7285 59.6836 58.15 60.8001 58.15C61.9167 58.15 62.7632 57.7285 63.3398 57.2987C63.6287 57.0834 63.8459 56.8684 63.9888 56.7101C64.0599 56.6312 64.1118 56.5674 64.144 56.5258C64.1601 56.5051 64.1713 56.49 64.1774 56.4816C64.1804 56.4776 64.1821 56.475 64.1828 56.4741ZM57.4172 56.4738C57.4172 56.4738 57.4172 56.4737 57.4174 56.474L57.4172 56.4738Z" fill="black"/>
<path fill-rule="evenodd" clip-rule="evenodd" d="M8.20002 51.1C8.20002 50.5477 8.64773 50.1 9.20002 50.1H22.2C22.7523 50.1 23.2 50.5477 23.2 51.1C23.2 51.6523 22.7523 52.1 22.2 52.1H9.20002C8.64773 52.1 8.20002 51.6523 8.20002 51.1Z" fill="black"/>
<path fill-rule="evenodd" clip-rule="evenodd" d="M8.20002 59.9C8.20002 59.3477 8.64773 58.9 9.20002 58.9H22.2C22.7523 58.9 23.2 59.3477 23.2 59.9C23.2 60.4523 22.7523 60.9 22.2 60.9H9.20002C8.64773 60.9 8.20002 60.4523 8.20002 59.9Z" fill="black"/>
</svg>
